<?xml version="1.0" standalone="no"?>
<!DOCTYPE svg PUBLIC "-//W3C//DTD SVG 20010904//EN"
 "http://www.w3.org/TR/2001/REC-SVG-20010904/DTD/svg10.dtd">
<svg version="1.0" xmlns="http://www.w3.org/2000/svg"
 width="300.000000pt" height="300.000000pt" viewBox="0 0 300.000000 300.000000"
 preserveAspectRatio="xMidYMid meet">
<metadata>
Created by potrace 1.10, written by Peter Selinger 2001-2011
</metadata>
<g transform="translate(0.000000,300.000000) scale(0.100000,-0.100000)"
fill="#0645ad" stroke="none">
<path d="M1320 2875 c-4 -11 -225 -607 -490 -1325 -265 -718 -493 -1333 -506
-1368 l-23 -62 133 0 133 0 179 510 179 510 554 -2 553 -3 37 -105 c21 -58
102 -286 181 -507 l143 -403 134 0 c125 0 135 1 128 18 -3 9 -117 323 -252
697 -135 374 -353 979 -485 1345 -132 366 -244 676 -249 690 l-9 25 -166 0
c-157 0 -167 -1 -174 -20z m326 -12 c-3 -3 1 -12 9 -20 13 -13 20 -41 16 -65
0 -5 3 -8 8 -8 8 0 62 -149 66 -182 0 -9 7 -23 14 -32 7 -9 11 -23 7 -31 -3
-9 -2 -14 2 -11 11 7 164 -422 156 -437 -4 -6 -3 -8 2 -4 4 4 16 -14 25 -40
98 -285 125 -358 132 -361 4 -2 7 -9 7 -15 0 -7 28 -86 61 -177 33 -91 61
-169 63 -175 2 -5 6 -23 11 -40 4 -16 11 -34 15 -40 4 -5 15 -30 23 -55 28
-82 75 -214 107 -300 116 -315 181 -501 183 -522 1 -10 5 -18 10 -18 5 0 7 -6
4 -14 -3 -8 -2 -16 3 -18 11 -4 61 -140 54 -147 -3 -3 -49 -7 -102 -9 -85 -3
-99 -1 -113 15 -17 18 -50 105 -121 318 -22 66 -46 134 -53 150 -8 17 -39 102
-69 190 -31 88 -70 196 -87 240 -17 44 -31 85 -31 92 -2 15 -1081 19 -1120 4
-20 -8 -32 -30 -68 -139 -24 -72 -48 -128 -54 -125 -5 4 -6 1 -1 -6 4 -7 3
-23 -3 -34 -6 -12 -25 -65 -42 -117 -36 -108 -147 -425 -160 -455 -5 -11 -16
-43 -25 -71 -8 -28 -21 -52 -28 -53 -6 -2 -56 -5 -109 -8 l-97 -4 4 28 c5 38
114 327 125 331 5 2 6 10 3 18 -3 8 -1 20 5 27 5 6 15 30 22 52 7 22 25 74 40
115 15 41 40 109 56 150 15 41 30 77 33 80 3 3 7 12 8 20 2 17 16 57 103 290
66 180 117 317 176 480 21 58 42 108 47 111 5 3 8 8 6 10 -3 5 16 65 53 164
17 44 43 116 60 160 16 44 35 94 43 110 7 17 17 42 20 58 4 15 11 27 17 27 5
0 7 4 3 9 -3 6 15 65 41 133 72 193 101 270 114 311 8 26 17 37 26 33 8 -3 14
-1 14 3 0 5 53 10 117 10 64 1 118 3 120 5 2 2 15 1 29 -2 14 -2 23 -7 20 -9z"/>
<path d="M1469 2686 c-7 -14 -16 -26 -21 -26 -5 0 -6 -4 -3 -10 3 -5 -1 -23
-10 -41 -9 -17 -18 -41 -20 -52 -7 -33 -97 -281 -106 -291 -5 -6 -9 -18 -9
-29 0 -10 -4 -16 -9 -13 -5 4 -7 -4 -3 -16 4 -16 2 -19 -8 -13 -8 5 -11 4 -7
-2 3 -5 -12 -61 -34 -124 -22 -63 -47 -134 -56 -159 -8 -25 -19 -49 -23 -55
-4 -5 -11 -25 -15 -43 -4 -19 -11 -30 -17 -26 -7 5 -8 2 -3 -5 4 -7 3 -23 -3
-34 -12 -26 -24 -58 -27 -73 -2 -6 -29 -82 -60 -168 -36 -99 -54 -161 -48
-167 13 -13 551 -23 786 -14 196 7 197 7 197 30 0 12 -7 38 -15 58 -8 19 -17
50 -20 68 -3 18 -11 37 -17 40 -6 4 -8 14 -5 23 4 9 3 16 -2 16 -7 0 -116 299
-125 342 -3 15 -14 44 -27 73 -4 11 -22 63 -40 115 -17 52 -35 104 -40 115 -9
22 -75 212 -90 259 -4 16 -6 33 -2 39 3 6 2 7 -3 4 -5 -3 -25 40 -45 96 -19
55 -40 102 -47 105 -6 2 -17 -8 -23 -22z m31 -17 c0 -7 430 -1246 455 -1311 7
-17 -20 -18 -474 -18 -265 0 -481 3 -481 8 0 4 109 307 242 674 210 575 258
697 258 647z"/>
</g>
</svg>
